<svg width="187" height="35" viewBox="0 0 187 35" fill="none" xmlns="http://www.w3.org/2000/svg">
<path d="M13.5641 6.2979V33.1589H8.50436V6.2979H0.234375V1.99844H21.7916V6.2979H13.5641Z" fill="white"/>
<path d="M26.3199 16.1952C26.816 14.8614 27.4679 13.8752 28.2758 13.2366C29.0978 12.5981 30.1112 12.2788 31.3159 12.2788C31.9679 12.2788 32.6057 12.3569 33.2293 12.513C33.8671 12.6691 34.4907 12.8961 35.1001 13.1941L33.4419 17.1104C33.045 16.8266 32.6128 16.6209 32.145 16.4932C31.6915 16.3513 31.1813 16.2803 30.6144 16.2803C29.0837 16.2803 27.9853 16.8976 27.3191 18.1321C26.653 19.3524 26.3199 21.4099 26.3199 24.3046V33.1589H21.7066V12.9387H26.3199V16.1952Z" fill="white"/>
<path d="M56.6999 33.1589H52.0866V30.5409C51.2645 31.7045 50.3008 32.5701 49.1953 33.1376C48.1039 33.7052 46.8496 33.989 45.4323 33.989C42.5835 33.989 40.3371 33.017 38.693 31.073C37.0631 29.1149 36.2481 26.4401 36.2481 23.0488C36.2481 19.8277 37.0844 17.231 38.7568 15.2587C40.4292 13.2721 42.6119 12.2788 45.3047 12.2788C46.9488 12.2788 48.352 12.6265 49.5141 13.3218C50.6905 14.0029 51.548 14.9891 52.0866 16.2803V12.9812H56.6999V33.1589ZM52.2141 23.0062C52.2141 20.9203 51.7251 19.2956 50.7472 18.1321C49.7834 16.9685 48.4299 16.3868 46.6866 16.3868C44.9433 16.3868 43.5685 16.9898 42.5623 18.1959C41.5701 19.3879 41.0741 21.0481 41.0741 23.1765C41.0741 25.3191 41.556 26.9722 42.5197 28.1358C43.4835 29.2993 44.8441 29.8811 46.6016 29.8811C48.2598 29.8811 49.6063 29.2497 50.6409 27.9868C51.6897 26.7239 52.2141 25.0637 52.2141 23.0062Z" fill="white"/>
<path d="M70.1572 34.3721L59.5912 12.9812H64.6297L69.0305 23.1339C69.1722 23.4461 69.3423 23.9144 69.5407 24.5387C69.7391 25.1631 69.9446 25.908 70.1572 26.7736C70.299 26.1634 70.4619 25.5604 70.6462 24.9644C70.8446 24.3542 71.0785 23.7441 71.3478 23.1339L75.7272 12.9812H80.7445L70.1572 34.3721Z" fill="white"/>
<path d="M103.067 23.7512H86.9523C87.0657 25.6384 87.6255 27.1141 88.6318 28.1784C89.6381 29.2284 90.9775 29.7534 92.6499 29.7534C94.1381 29.7534 95.3782 29.4412 96.3703 28.8169C97.3624 28.1925 98.227 27.1851 98.964 25.7945L102.854 27.9655C101.721 29.9946 100.318 31.5058 98.6451 32.4991C96.9727 33.4924 95.0097 33.989 92.7562 33.989C89.5247 33.989 86.9523 33.0028 85.0389 31.0305C83.1256 29.0581 82.1689 26.4259 82.1689 23.1339C82.1689 19.9696 83.1539 17.3729 85.124 15.3438C87.1082 13.3005 89.6523 12.2788 92.7562 12.2788C96.0018 12.2788 98.5317 13.2083 100.346 15.0671C102.16 16.926 103.067 19.5298 103.067 22.8785V23.7512ZM98.2837 20.6437C98.0994 19.1963 97.5467 18.0966 96.6254 17.3446C95.7042 16.5783 94.4428 16.1952 92.8412 16.1952C91.3247 16.1952 90.1058 16.5641 89.1846 17.302C88.2633 18.0398 87.6184 19.1537 87.2499 20.6437H98.2837Z" fill="white"/>
<path d="M108.106 33.1589V0.167969H112.719V33.1589H108.106Z" fill="white"/>
<path d="M119.543 33.1589V0.167969H124.157V33.1589H119.543Z" fill="white"/>
<path d="M130.364 4.25459C130.364 3.47416 130.648 2.80015 131.215 2.23256C131.796 1.66498 132.483 1.38118 133.277 1.38118C134.099 1.38118 134.779 1.65788 135.318 2.21128C135.871 2.75049 136.147 3.43159 136.147 4.25459C136.147 5.07759 135.871 5.77288 135.318 6.34047C134.765 6.89387 134.085 7.17057 133.277 7.17057C132.483 7.17057 131.796 6.88677 131.215 6.31919C130.648 5.73741 130.364 5.04921 130.364 4.25459ZM130.981 33.1589V12.9812H135.594V33.1589H130.981Z" fill="white"/>
<path d="M161.17 33.1589H156.556V30.5409C155.734 31.7045 154.77 32.5701 153.665 33.1376C152.574 33.7052 151.319 33.989 149.902 33.989C147.053 33.989 144.807 33.017 143.163 31.073C141.533 29.1149 140.718 26.4401 140.718 23.0488C140.718 19.8277 141.554 17.231 143.227 15.2587C144.899 13.2721 147.082 12.2788 149.774 12.2788C151.419 12.2788 152.822 12.6265 153.984 13.3218C155.16 14.0029 156.018 14.9891 156.556 16.2803V12.9812H161.17V33.1589ZM156.684 23.0062C156.684 20.9203 156.195 19.2956 155.217 18.1321C154.253 16.9685 152.9 16.3868 151.156 16.3868C149.413 16.3868 148.038 16.9898 147.032 18.1959C146.04 19.3879 145.544 21.0481 145.544 23.1765C145.544 25.3191 146.026 26.9722 146.989 28.1358C147.953 29.2993 149.314 29.8811 151.071 29.8811C152.73 29.8811 154.076 29.2497 155.111 27.9868C156.159 26.7239 156.684 25.0637 156.684 23.0062Z" fill="white"/>
<path d="M167.547 33.1589V12.9812H171.884V16.2803C172.806 14.8897 173.89 13.8752 175.137 13.2366C176.384 12.5981 177.901 12.2788 179.687 12.2788C181.189 12.2788 182.465 12.5201 183.513 13.0025C184.576 13.4708 185.406 14.1732 186.001 15.1097C186.355 15.6631 186.61 16.3087 186.766 17.0466C186.922 17.7844 187 19.0757 187 20.9203V33.1589H182.344V22.7934C182.344 20.1399 182.018 18.3804 181.366 17.5148C180.728 16.6351 179.588 16.1952 177.943 16.1952C176.866 16.1952 175.903 16.3938 175.052 16.7912C174.216 17.1885 173.557 17.749 173.075 18.4726C172.735 18.9551 172.494 19.5794 172.352 20.3457C172.225 21.0977 172.161 22.3038 172.161 23.964V33.1589H167.547Z" fill="white"/>
</svg>
